<svg xmlns="http://www.w3.org/2000/svg" xmlns:xlink="http://www.w3.org/1999/xlink" width="900" zoomAndPan="magnify" viewBox="0 0 675 287.25" height="383" preserveAspectRatio="xMidYMid meet" version="1.0"><defs><g/><clipPath id="a589537be6"><path d="M 8.503906 51.605469 L 101.707031 51.605469 L 101.707031 238.007812 L 8.503906 238.007812 Z M 8.503906 51.605469 " clip-rule="nonzero"/></clipPath></defs><g fill="#ffffff" fill-opacity="1"><g transform="translate(116.623051, 248.387133)"><g/></g></g><g clip-path="url(#a589537be6)"><path fill="#f0c244" d="M 101.707031 191.371094 L 101.707031 98.242188 L 8.503906 51.605469 L 8.503906 238.007812 L 101.707031 191.371094 " fill-opacity="1" fill-rule="nonzero"/></g><g fill="#ffffff" fill-opacity="1"><g transform="translate(15.88596, 197.28932)"><g><path d="M 39.242188 1.835938 C 58.863281 1.835938 71.429688 -16.09375 71.429688 -52.089844 C 71.429688 -87.945312 58.863281 -105.449219 39.242188 -105.449219 C 19.480469 -105.449219 6.917969 -88.085938 6.917969 -52.089844 C 6.917969 -16.09375 19.480469 1.835938 39.242188 1.835938 Z M 39.242188 -8.46875 C 27.386719 -8.46875 19.480469 -21.597656 19.480469 -52.089844 C 19.480469 -82.296875 27.386719 -95.003906 39.242188 -95.003906 C 50.960938 -95.003906 58.863281 -82.296875 58.863281 -52.089844 C 58.863281 -21.597656 50.960938 -8.46875 39.242188 -8.46875 Z M 39.242188 -8.46875 "/></g></g></g><g fill="#f0c244" fill-opacity="1"><g transform="translate(113.741905, 186.828819)"><g><path d="M 26.3125 -34 L 3.34375 -66.515625 L 15.765625 -66.515625 L 32.890625 -41.453125 L 49.890625 -66.515625 L 62.171875 -66.515625 L 39.21875 -34 L 63.40625 0 L 51 0 L 32.890625 -26.5625 L 14.515625 0 L 2.234375 0 Z M 26.3125 -34 "/></g></g></g><g fill="#f0c244" fill-opacity="1"><g transform="translate(179.381245, 186.828819)"><g><path d="M 41.578125 -67.75 C 42.816406 -67.75 44.140625 -67.6875 45.546875 -67.5625 C 46.953125 -67.445312 48.234375 -67.265625 49.390625 -67.015625 L 48.03125 -56.953125 C 46.945312 -57.203125 45.742188 -57.410156 44.421875 -57.578125 C 43.097656 -57.742188 41.898438 -57.828125 40.828125 -57.828125 C 37.429688 -57.828125 34.242188 -56.894531 31.265625 -55.03125 C 28.285156 -53.175781 25.90625 -50.570312 24.125 -47.21875 C 22.351562 -43.863281 21.46875 -39.953125 21.46875 -35.484375 L 21.46875 0 L 10.546875 0 L 10.546875 -66.515625 L 19.484375 -66.515625 L 20.71875 -54.359375 L 21.21875 -54.359375 C 23.289062 -57.992188 26.039062 -61.132812 29.46875 -63.78125 C 32.90625 -66.425781 36.941406 -67.75 41.578125 -67.75 Z M 41.578125 -67.75 "/></g></g></g><g fill="#f0c244" fill-opacity="1"><g transform="translate(230.627076, 186.828819)"><g><path d="M 36.234375 -67.75 C 41.859375 -67.75 46.738281 -66.507812 50.875 -64.03125 C 55.007812 -61.550781 58.171875 -58.054688 60.359375 -53.546875 C 62.554688 -49.035156 63.65625 -43.757812 63.65625 -37.71875 L 63.65625 -31.140625 L 18.125 -31.140625 C 18.28125 -23.617188 20.195312 -17.890625 23.875 -13.953125 C 27.5625 -10.023438 32.71875 -8.0625 39.34375 -8.0625 C 43.5625 -8.0625 47.300781 -8.453125 50.5625 -9.234375 C 53.832031 -10.023438 57.207031 -11.164062 60.6875 -12.65625 L 60.6875 -3.109375 C 57.289062 -1.617188 53.9375 -0.523438 50.625 0.171875 C 47.320312 0.878906 43.394531 1.234375 38.84375 1.234375 C 32.46875 1.234375 26.878906 -0.046875 22.078125 -2.609375 C 17.285156 -5.171875 13.546875 -8.972656 10.859375 -14.015625 C 8.171875 -19.066406 6.828125 -25.316406 6.828125 -32.765625 C 6.828125 -40.046875 8.046875 -46.289062 10.484375 -51.5 C 12.921875 -56.707031 16.351562 -60.71875 20.78125 -63.53125 C 25.207031 -66.34375 30.359375 -67.75 36.234375 -67.75 Z M 36.109375 -58.828125 C 30.898438 -58.828125 26.785156 -57.148438 23.765625 -53.796875 C 20.742188 -50.441406 18.941406 -45.785156 18.359375 -39.828125 L 52.25 -39.828125 C 52.164062 -45.453125 50.835938 -50.023438 48.265625 -53.546875 C 45.703125 -57.066406 41.648438 -58.828125 36.109375 -58.828125 Z M 36.109375 -58.828125 "/></g></g></g><g fill="#f0c244" fill-opacity="1"><g transform="translate(300.609281, 186.828819)"><g><path d="M 35.734375 -67.625 C 43.847656 -67.625 49.847656 -65.84375 53.734375 -62.28125 C 57.617188 -58.726562 59.5625 -53.066406 59.5625 -45.296875 L 59.5625 0 L 51.625 0 L 49.515625 -9.4375 L 49.015625 -9.4375 C 46.117188 -5.789062 43.054688 -3.097656 39.828125 -1.359375 C 36.609375 0.367188 32.226562 1.234375 26.6875 1.234375 C 20.644531 1.234375 15.632812 -0.351562 11.65625 -3.53125 C 7.6875 -6.71875 5.703125 -11.703125 5.703125 -18.484375 C 5.703125 -25.109375 8.304688 -30.21875 13.515625 -33.8125 C 18.734375 -37.414062 26.757812 -39.378906 37.59375 -39.703125 L 48.890625 -40.078125 L 48.890625 -44.046875 C 48.890625 -49.597656 47.691406 -53.445312 45.296875 -55.59375 C 42.898438 -57.75 39.507812 -58.828125 35.125 -58.828125 C 31.644531 -58.828125 28.332031 -58.304688 25.1875 -57.265625 C 22.039062 -56.234375 19.101562 -55.054688 16.375 -53.734375 L 13.03125 -61.921875 C 15.925781 -63.492188 19.359375 -64.835938 23.328125 -65.953125 C 27.296875 -67.066406 31.429688 -67.625 35.734375 -67.625 Z M 48.765625 -32.515625 L 38.96875 -32.140625 C 30.695312 -31.804688 24.96875 -30.476562 21.78125 -28.15625 C 18.59375 -25.84375 17 -22.578125 17 -18.359375 C 17 -14.640625 18.132812 -11.910156 20.40625 -10.171875 C 22.6875 -8.429688 25.601562 -7.5625 29.15625 -7.5625 C 34.695312 -7.5625 39.347656 -9.113281 43.109375 -12.21875 C 46.878906 -15.320312 48.765625 -20.101562 48.765625 -26.5625 Z M 48.765625 -32.515625 "/></g></g></g><g fill="#f0c244" fill-opacity="1"><g transform="translate(370.219243, 186.828819)"><g><path d="M 34.125 1.234375 C 25.851562 1.234375 19.234375 -1.640625 14.265625 -7.390625 C 9.304688 -13.140625 6.828125 -21.722656 6.828125 -33.140625 C 6.828125 -44.554688 9.328125 -53.175781 14.328125 -59 C 19.335938 -64.832031 25.976562 -67.75 34.25 -67.75 C 39.375 -67.75 43.570312 -66.796875 46.84375 -64.890625 C 50.113281 -62.992188 52.78125 -60.679688 54.84375 -57.953125 L 55.59375 -57.953125 C 55.425781 -59.023438 55.257812 -60.613281 55.09375 -62.71875 C 54.925781 -64.832031 54.84375 -66.507812 54.84375 -67.75 L 54.84375 -94.3125 L 65.765625 -94.3125 L 65.765625 0 L 56.953125 0 L 55.34375 -8.9375 L 54.84375 -8.9375 C 52.863281 -6.125 50.21875 -3.722656 46.90625 -1.734375 C 43.59375 0.242188 39.332031 1.234375 34.125 1.234375 Z M 35.859375 -7.8125 C 42.890625 -7.8125 47.832031 -9.734375 50.6875 -13.578125 C 53.539062 -17.429688 54.96875 -23.25 54.96875 -31.03125 L 54.96875 -33.015625 C 54.96875 -41.285156 53.601562 -47.632812 50.875 -52.0625 C 48.144531 -56.488281 43.097656 -58.703125 35.734375 -58.703125 C 29.859375 -58.703125 25.453125 -56.363281 22.515625 -51.6875 C 19.585938 -47.007812 18.125 -40.742188 18.125 -32.890625 C 18.125 -24.941406 19.585938 -18.773438 22.515625 -14.390625 C 25.453125 -10.003906 29.898438 -7.8125 35.859375 -7.8125 Z M 35.859375 -7.8125 "/></g></g></g><g fill="#f0c244" fill-opacity="1"><g transform="translate(446.529614, 186.828819)"><g><path d="M 18.234375 -15.640625 C 19.484375 -15.640625 20.601562 -15.425781 21.59375 -15 C 22.582031 -14.570312 23.429688 -13.984375 24.140625 -13.234375 C 24.847656 -12.492188 25.394531 -11.628906 25.78125 -10.640625 C 26.164062 -9.648438 26.359375 -8.609375 26.359375 -7.515625 C 26.359375 -6.378906 26.144531 -5.328125 25.71875 -4.359375 C 25.289062 -3.390625 24.703125 -2.53125 23.953125 -1.78125 C 23.210938 -1.039062 22.359375 -0.457031 21.390625 -0.03125 C 20.421875 0.394531 19.367188 0.609375 18.234375 0.609375 C 17.148438 0.609375 16.117188 0.394531 15.140625 -0.03125 C 14.171875 -0.457031 13.3125 -1.039062 12.5625 -1.78125 C 11.820312 -2.53125 11.238281 -3.390625 10.8125 -4.359375 C 10.382812 -5.328125 10.171875 -6.378906 10.171875 -7.515625 C 10.171875 -8.679688 10.394531 -9.769531 10.84375 -10.78125 C 11.289062 -11.789062 11.882812 -12.648438 12.625 -13.359375 C 13.375 -14.066406 14.234375 -14.625 15.203125 -15.03125 C 16.171875 -15.4375 17.179688 -15.640625 18.234375 -15.640625 Z M 18.234375 -15.640625 "/></g></g></g><g fill="#f0c244" fill-opacity="1"><g transform="translate(480.579446, 186.828819)"><g><path d="M 83.515625 -67.75 C 91.046875 -67.75 96.671875 -65.804688 100.390625 -61.921875 C 104.109375 -58.035156 105.96875 -51.832031 105.96875 -43.3125 L 105.96875 0 L 95.1875 0 L 95.1875 -42.8125 C 95.1875 -53.320312 90.675781 -58.578125 81.65625 -58.578125 C 75.195312 -58.578125 70.582031 -56.710938 67.8125 -52.984375 C 65.039062 -49.265625 63.65625 -43.847656 63.65625 -36.734375 L 63.65625 0 L 52.859375 0 L 52.859375 -42.8125 C 52.859375 -53.320312 48.3125 -58.578125 39.21875 -58.578125 C 32.507812 -58.578125 27.875 -56.503906 25.3125 -52.359375 C 22.75 -48.222656 21.46875 -42.269531 21.46875 -34.5 L 21.46875 0 L 10.546875 0 L 10.546875 -66.515625 L 19.359375 -66.515625 L 20.96875 -57.453125 L 21.59375 -57.453125 C 23.65625 -60.929688 26.445312 -63.515625 29.96875 -65.203125 C 33.488281 -66.898438 37.234375 -67.75 41.203125 -67.75 C 51.617188 -67.75 58.398438 -64.03125 61.546875 -56.59375 L 62.171875 -56.59375 C 64.398438 -60.394531 67.414062 -63.203125 71.21875 -65.015625 C 75.03125 -66.835938 79.128906 -67.75 83.515625 -67.75 Z M 83.515625 -67.75 "/></g></g></g><g fill="#f0c244" fill-opacity="1"><g transform="translate(596.596027, 186.828819)"><g><path d="M 36.234375 -67.75 C 41.859375 -67.75 46.738281 -66.507812 50.875 -64.03125 C 55.007812 -61.550781 58.171875 -58.054688 60.359375 -53.546875 C 62.554688 -49.035156 63.65625 -43.757812 63.65625 -37.71875 L 63.65625 -31.140625 L 18.125 -31.140625 C 18.28125 -23.617188 20.195312 -17.890625 23.875 -13.953125 C 27.5625 -10.023438 32.71875 -8.0625 39.34375 -8.0625 C 43.5625 -8.0625 47.300781 -8.453125 50.5625 -9.234375 C 53.832031 -10.023438 57.207031 -11.164062 60.6875 -12.65625 L 60.6875 -3.109375 C 57.289062 -1.617188 53.9375 -0.523438 50.625 0.171875 C 47.320312 0.878906 43.394531 1.234375 38.84375 1.234375 C 32.46875 1.234375 26.878906 -0.046875 22.078125 -2.609375 C 17.285156 -5.171875 13.546875 -8.972656 10.859375 -14.015625 C 8.171875 -19.066406 6.828125 -25.316406 6.828125 -32.765625 C 6.828125 -40.046875 8.046875 -46.289062 10.484375 -51.5 C 12.921875 -56.707031 16.351562 -60.71875 20.78125 -63.53125 C 25.207031 -66.34375 30.359375 -67.75 36.234375 -67.75 Z M 36.109375 -58.828125 C 30.898438 -58.828125 26.785156 -57.148438 23.765625 -53.796875 C 20.742188 -50.441406 18.941406 -45.785156 18.359375 -39.828125 L 52.25 -39.828125 C 52.164062 -45.453125 50.835938 -50.023438 48.265625 -53.546875 C 45.703125 -57.066406 41.648438 -58.828125 36.109375 -58.828125 Z M 36.109375 -58.828125 "/></g></g></g></svg>