<?xml version="1.0" encoding="iso-8859-1"?>
<!-- Uploaded to: SVG Repo, www.svgrepo.com, Generator: SVG Repo Mixer Tools -->
<svg version="1.1" id="Layer_1" xmlns="http://www.w3.org/2000/svg" xmlns:xlink="http://www.w3.org/1999/xlink" 
	 viewBox="0 0 512 512" xml:space="preserve">
<path style="fill:#ACAAB1;" d="M367.829,504.396H144.17c-17.844,0-32.444-14.6-32.444-32.444V40.048
	c0-17.844,14.6-32.444,32.444-32.444h223.66c17.844,0,32.444,14.6,32.444,32.444v431.905
	C400.273,489.796,385.673,504.396,367.829,504.396z"/>
<rect x="111.727" y="81.036" style="fill:#D3EFFD;" width="288.545" height="342.766"/>
<g>
	<path style="fill:#3E3B43;" d="M303.624,57.358h-93.537c-4.715,0-8.574-3.859-8.574-8.574v-4.677c0-4.715,3.859-8.574,8.574-8.574
		h93.537c4.715,0,8.574,3.859,8.574,8.574v4.677C312.198,53.499,308.339,57.358,303.624,57.358z"/>
	<path style="fill:#3E3B43;" d="M158.024,56.18L158.024,56.18c-5.354,0-9.735-4.381-9.735-9.735l0,0
		c0-5.354,4.381-9.735,9.735-9.735l0,0c5.354,0,9.735,4.381,9.735,9.735l0,0C167.759,51.799,163.378,56.18,158.024,56.18z"/>
	<path style="fill:#3E3B43;" d="M258.26,479.124L258.26,479.124c-7.755,0-14.101-6.345-14.101-14.101l0,0
		c0-7.755,6.345-14.1,14.101-14.1l0,0c7.755,0,14.1,6.345,14.1,14.1l0,0C272.36,472.778,266.015,479.124,258.26,479.124z"/>
</g>
<g>
	<path style="fill:#174F79;" d="M338.624,311.043H173.375c-4.199,0-7.604-3.405-7.604-7.604c0-4.199,3.405-7.604,7.604-7.604
		h165.248c4.2,0,7.604,3.405,7.604,7.604C346.227,307.638,342.824,311.043,338.624,311.043z"/>
	<path style="fill:#174F79;" d="M338.624,342.454H173.375c-4.199,0-7.604-3.405-7.604-7.604s3.405-7.604,7.604-7.604h165.248
		c4.2,0,7.604,3.405,7.604,7.604S342.824,342.454,338.624,342.454z"/>
	<path style="fill:#174F79;" d="M338.624,373.866H173.375c-4.199,0-7.604-3.405-7.604-7.604s3.405-7.604,7.604-7.604h165.248
		c4.2,0,7.604,3.405,7.604,7.604S342.824,373.866,338.624,373.866z"/>
</g>
<rect x="189.389" y="128.01" style="fill:#D7D5D9;" width="132.319" height="132.319"/>
<g>
	<rect x="189.389" y="128.01" style="fill:#5D5D5D;" width="39.754" height="39.754"/>
	<rect x="293.016" y="128.01" style="fill:#5D5D5D;" width="28.692" height="28.692"/>
	<rect x="281.954" y="220.505" style="fill:#5D5D5D;" width="39.753" height="39.754"/>
	<rect x="229.142" y="167.764" style="fill:#5D5D5D;" width="52.812" height="52.812"/>
</g>
<polygon style="opacity:0.43;fill:#FFFFFF;enable-background:new    ;" points="214.522,423.8 137.564,423.8 309.921,81.036 
	386.879,81.036 "/>
<path d="M367.829,0H144.17c-22.082,0-40.048,17.966-40.048,40.048v431.905c0,22.082,17.966,40.048,40.048,40.048H367.83
	c22.082,0,40.048-17.966,40.048-40.048V40.048C407.877,17.966,389.912,0,367.829,0z M119.33,92.498h273.34v323.699H119.33V92.498z
	 M144.17,15.208H367.83c13.697,0,24.84,11.143,24.84,24.84V77.29H119.33V40.048C119.33,26.351,130.472,15.208,144.17,15.208z
	 M367.829,496.792H144.17c-13.696,0-24.84-11.143-24.84-24.84v-40.548h273.34v40.548
	C392.669,485.649,381.527,496.792,367.829,496.792z"/>
<path d="M210.086,64.962h93.537c8.921,0,16.178-7.257,16.178-16.178v-4.677c0-8.921-7.257-16.178-16.178-16.178h-93.537
	c-8.921,0-16.178,7.257-16.178,16.178v4.677C193.908,57.705,201.166,64.962,210.086,64.962z M209.116,44.107
	c0-0.517,0.453-0.97,0.97-0.97h93.537c0.517,0,0.97,0.453,0.97,0.97v4.677c0,0.517-0.453,0.97-0.97,0.97h-93.537
	c-0.517,0-0.97-0.453-0.97-0.97L209.116,44.107L209.116,44.107z"/>
<path d="M158.024,63.784c9.561,0,17.339-7.778,17.339-17.339s-7.778-17.339-17.339-17.339c-9.561,0-17.339,7.778-17.339,17.339
	C140.686,56.006,148.464,63.784,158.024,63.784z M158.024,44.314c1.155,0,2.131,0.975,2.131,2.131c0,1.155-0.975,2.131-2.131,2.131
	c-1.156,0-2.131-0.975-2.131-2.131C155.894,45.29,156.869,44.314,158.024,44.314z"/>
<path d="M258.259,443.318c-11.968,0-21.704,9.737-21.704,21.705c0,11.968,9.736,21.705,21.704,21.705s21.705-9.737,21.705-21.705
	C279.964,453.055,270.228,443.318,258.259,443.318z M258.259,471.52c-3.582,0-6.496-2.915-6.496-6.497
	c0-3.582,2.915-6.497,6.496-6.497c3.582,0,6.497,2.915,6.497,6.497C264.756,468.605,261.842,471.52,258.259,471.52z"/>
<path d="M173.375,311.043h165.248c4.2,0,7.604-3.405,7.604-7.604c0-4.199-3.404-7.604-7.604-7.604H173.375
	c-4.199,0-7.604,3.405-7.604,7.604C165.771,307.638,169.175,311.043,173.375,311.043z"/>
<path d="M338.624,327.246H173.375c-4.199,0-7.604,3.405-7.604,7.604s3.405,7.604,7.604,7.604h165.248c4.2,0,7.604-3.405,7.604-7.604
	S342.824,327.246,338.624,327.246z"/>
<path d="M338.624,358.659H173.375c-4.199,0-7.604,3.405-7.604,7.604s3.405,7.604,7.604,7.604h165.248c4.2,0,7.604-3.405,7.604-7.604
	S342.824,358.659,338.624,358.659z"/>
<path d="M189.387,267.929h132.319c4.2,0,7.604-3.405,7.604-7.604v-0.071v-39.752v-63.805v-28.689c0-4.199-3.404-7.604-7.604-7.604
	h-28.689H229.14h-39.752c-4.199,0-7.604,3.405-7.604,7.604v39.752v92.566C181.783,264.525,185.187,267.929,189.387,267.929z
	 M196.991,175.364h24.545v45.209c0,4.199,3.405,7.604,7.604,7.604h45.209v24.545H196.99v-77.358H196.991z M293.017,164.3h21.085
	v48.597h-24.545V167.76c0-4.199-3.404-7.604-7.604-7.604h-45.209v-24.545h48.668v21.085
	C285.413,160.896,288.817,164.3,293.017,164.3z M236.744,175.364h37.605v37.605h-37.605V175.364z M314.102,252.65h-24.545v-24.545
	h24.545L314.102,252.65L314.102,252.65z M314.102,135.611v13.481h-13.481v-13.481H314.102z M196.991,135.611h24.545v24.545h-24.545
	V135.611z"/>
</svg>