<svg xmlns="http://www.w3.org/2000/svg" width="1336" height="780" viewBox="0 0 1336 780" fill="none" style="max-height: max(35rem, 100vh - 15rem); max-width: calc(100vw - 2rem); margin: 0px auto;"><mask id="mask0_721_405" maskUnits="userSpaceOnUse" x="0" y="0" width="1336" height="780" style="mask-type: alpha;"><path fill-rule="evenodd" clip-rule="evenodd" d="M0 36C0 16.1177 16.1177 0 36 0H1300C1319.88 0 1336 16.1178 1336 36V318C1296.79 318 1265 349.788 1265 389C1265 428.212 1296.79 460 1336 460V744C1336 763.882 1319.88 780 1300 780H36C16.1178 780 0 763.882 0 744V460C39.2122 460 71 428.212 71 389C71 349.788 39.2122 318 0 318V36Z" fill="url(#paint0_linear_721_405)"></path></mask><g mask="url(#mask0_721_405)"><rect width="1336" height="780" rx="36" fill="#202020"></rect><path fill-rule="evenodd" clip-rule="evenodd" d="M-1 -55.8333V167.333H222.167H445.333V-55.8333V-279H222.167H-1V-55.8333ZM509.095 -247.119V-215.238H540.976H572.857V-247.119V-279H540.976H509.095V-247.119ZM636.619 -247.119V-215.238H668.5H700.381V-183.357V-151.476H668.5H636.619V-119.595V-87.7143H604.738H572.857V7.92859V103.571H540.976H509.095V167.333V231.095H540.976H572.857V294.857V358.619H540.976H509.095V326.738V294.857H477.214H445.333V262.976V231.095H413.452H381.571V262.976V294.857H349.69H317.81V262.976V231.095H254.048H190.286V262.976V294.857H158.405H126.524V262.976V231.095H62.7619H-1V358.619V486.143H30.881H62.7619V518.024V549.905H190.286H317.81V518.024V486.143H349.69H381.571V518.024V549.905H445.333H509.095V581.786V613.667H540.976H572.857V677.429V741.19H540.976H509.095V804.952V868.714H540.976H572.857V900.595V932.476H540.976H509.095V996.238V1060H604.738H700.381V1028.12V996.238H732.262H764.143V1028.12V1060H796.024H827.905V1028.12V996.238H859.786H891.667V1028.12V1060H955.429H1019.19V1028.12V996.238H1051.07H1082.95V1028.12V1060H1114.83H1146.71V1028.12V996.238H1242.36H1338V932.476V868.714H1306.12H1274.24V836.833V804.952H1306.12H1338V741.19V677.429H1274.24H1210.48V645.548V613.667H1242.36H1274.24V549.905V486.143H1242.36H1210.48V454.262V422.381H1274.24H1338V390.5V358.619H1306.12H1274.24V326.738V294.857H1306.12H1338V262.976V231.095H1306.12H1274.24V262.976V294.857H1114.83H955.429V262.976V231.095H923.548H891.667V262.976V294.857H859.786H827.905V167.333V39.8095H796.024H764.143V-23.9524V-87.7143H732.262H700.381V-119.595V-151.476H764.143H827.905V-183.357V-215.238H764.143H700.381V-247.119V-279H668.5H636.619V-247.119ZM891.667 -55.8333V167.333H1114.83H1338V-55.8333V-279H1114.83H891.667V-55.8333ZM381.571 -55.8333V103.571H222.167H62.7619V-55.8333V-215.238H222.167H381.571V-55.8333ZM1274.24 -55.8333V103.571H1114.83H955.429V-55.8333V-215.238H1114.83H1274.24V-55.8333ZM126.524 -55.8333V39.8095H222.167H317.81V-55.8333V-151.476H222.167H126.524V-55.8333ZM1019.19 -55.8333V39.8095H1114.83H1210.48V-55.8333V-151.476H1114.83H1019.19V-55.8333ZM700.381 -23.9524V39.8095H732.262H764.143V103.571V167.333H732.262H700.381V199.214V231.095H636.619H572.857V167.333V103.571H604.738H636.619V7.92859V-87.7143H668.5H700.381V-23.9524ZM636.619 135.452V167.333H668.5H700.381V135.452V103.571H668.5H636.619V135.452ZM317.81 390.5V486.143H285.929H254.048V390.5V294.857H285.929H317.81V390.5ZM445.333 326.738V358.619H477.214H509.095V390.5V422.381H572.857H636.619V390.5V358.619H668.5H700.381V326.738V294.857H764.143H827.905V326.738V358.619H796.024H764.143V390.5V422.381H796.024H827.905V454.262V486.143H796.024H764.143V518.024V549.905H827.905H891.667V454.262V358.619H987.31H1082.95V390.5V422.381H1114.83H1146.71V454.262V486.143H1178.6H1210.48V518.024V549.905H1114.83H1019.19V581.786V613.667H987.31H955.429V645.548V677.429H891.667H827.905V645.548V613.667H796.024H764.143V581.786V549.905H732.262H700.381V518.024V486.143H636.619H572.857V518.024V549.905H604.738H636.619V581.786V613.667H668.5H700.381V645.548V677.429H668.5H636.619V645.548V613.667H604.738H572.857V581.786V549.905H540.976H509.095V518.024V486.143H445.333H381.571V454.262V422.381H413.452H445.333V390.5V358.619H413.452H381.571V326.738V294.857H413.452H445.333V326.738ZM700.381 454.262V486.143H732.262H764.143V454.262V422.381H732.262H700.381V454.262ZM955.429 454.262V486.143H987.31H1019.19V454.262V422.381H987.31H955.429V454.262ZM891.667 581.786V613.667H923.548H955.429V581.786V549.905H923.548H891.667V581.786ZM-1 836.833V1060H222.167H445.333V836.833V613.667H222.167H-1V836.833ZM1146.71 645.548V677.429H1114.83H1082.95V709.31V741.19H1178.6H1274.24V773.071V804.952H1178.6H1082.95V836.833V868.714H1019.19H955.429V900.595V932.476H987.31H1019.19V964.357V996.238H987.31H955.429V964.357V932.476H923.548H891.667V900.595V868.714H859.786H827.905V804.952V741.19H923.548H1019.19V709.31V677.429H1051.07H1082.95V645.548V613.667H1114.83H1146.71V645.548ZM381.571 836.833V996.238H222.167H62.7619V836.833V677.429H222.167H381.571V836.833ZM126.524 836.833V932.476H222.167H317.81V836.833V741.19H222.167H126.524V836.833ZM764.143 773.071V804.952H732.262H700.381V836.833V868.714H732.262H764.143V900.595V932.476H796.024H827.905V964.357V996.238H796.024H764.143V964.357V932.476H732.262H700.381V964.357V996.238H668.5H636.619V964.357V932.476H668.5H700.381V900.595V868.714H636.619H572.857V836.833V804.952H604.738H636.619V773.071V741.19H700.381H764.143V773.071ZM1019.19 773.071V804.952H1051.07H1082.95V773.071V741.19H1051.07H1019.19V773.071ZM1146.71 964.357V996.238H1114.83H1082.95V964.357V932.476H1114.83H1146.71V964.357Z" fill="url(#paint1_linear_721_405)"></path><image href="/startScreenGraphics/pic1.png" transform-origin="164.5px 170.5px" style="max-width: 20%; transform: translateX(81%); transform-origin: 164.5px 170.5px;"></image><image href="/startScreenGraphics/pic2.png" y="100%" style="width: 25%; transform: translateX(76%) translateY(-47%); transform-origin: 167px 973.664px;" transform-origin="167px 973.6638641357422px"></image><image href="/startScreenGraphics/pic3.png" x="35%" y="100%" style="width: 30%; transform: translateY(-19%); transform-origin: 668px 1016.19px;" transform-origin="668px 1016.1856994628906px"></image><image href="/startScreenGraphics/pic4.png" y="100%" x="-20%" style="width: 20%; transform: translateX(20%) translateY(-41%); transform-origin: -133.6px 971.436px;" transform-origin="-133.60000610351562px 971.4355010986328px"></image><image href="/startScreenGraphics/pic5.png" y="-10%" x="-25%" style="width: 25%; transform: translateX(18%) translateY(2%); transform-origin: -167px 74.3141px;" transform-origin="-167px 74.31407165527344px"></image></g><defs><linearGradient id="paint0_linear_721_405" x1="0" y1="0" x2="1336" y2="791" gradientUnits="userSpaceOnUse"><stop stop-color="#171717"></stop><stop offset="1" stop-color="#202020"></stop></linearGradient><linearGradient id="paint1_linear_721_405" x1="-0.999998" y1="7.49997" x2="1362.15" y2="107.823" gradientUnits="userSpaceOnUse"><stop offset="0.114985" stop-color="#242424"></stop><stop offset="1" stop-color="#141414"></stop></linearGradient></defs></svg>